<?xml version="1.0" encoding="UTF-8" standalone="no"?>
<svg xmlns:rdf="http://www.w3.org/1999/02/22-rdf-syntax-ns#" xmlns="http://www.w3.org/2000/svg" height="100%" viewBox="0 0 24.000516 23.968749" width="100%" version="1.1" xmlns:cc="http://creativecommons.org/ns#" xmlns:dc="http://purl.org/dc/elements/1.1/">
 <metadata>
  <rdf:RDF>
   <cc:Work rdf:about="">
    <dc:format>image/svg+xml</dc:format>
    <dc:type rdf:resource="http://purl.org/dc/dcmitype/StillImage"/>
    <dc:title/>
   </cc:Work>
  </rdf:RDF>
 </metadata>
 <g id="icon">
  <path d="m1.9804,0.35706,20.008,0c0.89396,0,1.6253,0.73132,1.6253,1.6246v20.008c0,0.89396-0.73132,1.6249-1.6253,1.6249h-20.008c-0.8932,0-1.6241-0.73094-1.6241-1.6249v-20.008c0-0.8932,0.73095-1.6246,1.6241-1.6246" fill-rule="evenodd" stroke="#000" stroke-miterlimit="4" stroke-dasharray="none" stroke-width="0.71154886" fill="#155196"/>
  <path d="m3.4867,20.926,4.4163,0,0-18.502,0.00611-0.0007996c0-0.41397,0.34414-0.74775,0.75812-0.74775,0.00269,0,0.00196-0.00386,0.00305-0.00386l6.6485-0.00421c0.41129,0,0.75159,0.34607,0.75581,0.75696v1.2818l1.7979,1.4741c0.3334,0.2513,0.55132,0.65069,0.57281,1.0658-0.0012,2.5936,0,4.9251,0,6.9719,0,2.3384,1.3865,4.1041,1.3865,5.8796,0,0.89202-0.73203,1.619-1.6183,1.619-0.74814,0-1.446-0.58777-1.6471-1.3206-0.31652-1.1544-0.14464-7.2281-0.15846-8.5702h-0.33863v10.101h4.0419v1.4583h-16.625v-1.4583z" fill-rule="evenodd" fill="#FFF"/>
  <path d="m17.263,10.315c0-0.33954-0.277-0.61654-0.60963-0.61654l-0.59928-0.024173v-4.8337l0.35143,0.2701v1.9276l1.1817-0.0007995c0.01726,2.1918,0.03529,4.3837,0.05218,6.5756,0.0034,2.1818,1.2561,4.1106,1.2933,5.3675,0.01228,0.41742-0.3407,0.75812-0.75888,0.75812-0.21331,0-0.49914-0.10858-0.67908-0.40745-0.508-0.844-0.223-7.922-0.231-9.016" fill-rule="evenodd" fill="#155196"/>
  <path d="m9.4957,2.7136,4.9657,0c0.2678,0,0.48572,0.21907,0.48572,0.48648v3.7925c0,0.26742-0.21792,0.4861-0.48572,0.4861h-4.9653c-0.26742,0-0.48648-0.21868-0.48648-0.4861v-3.7925c0-0.26742,0.21908-0.48648,0.48648-0.48648" fill-rule="evenodd" fill="#155196"/>
  <path d="m9.9145,14.44,0-6.1775,4.4929,0,0,1.2311-3.2828,0,0,1.0157,1.8568,0,0,1.2311-1.8568,0,0,1.4686,3.3687,0,0,1.2311-4.5787,0z" fill-rule="nonzero" fill="#155196"/>
  <path d="m12.668,21.59-1.2959,0-2.2245-6.1775,1.2959,0,1.5766,4.3411,1.5118-4.3411,1.2743,0-2.1381,6.1775z" fill-rule="nonzero" fill="#155196"/>
 </g>
</svg>
